<svg width="20" height="20" viewBox="0 0 20 20" fill="none" xmlns="http://www.w3.org/2000/svg">
<g clip-path="url(#clip0_15296_135)">
<path d="M5.83333 0H3.33333C2.44928 0 1.60143 0.35119 0.976311 0.976311C0.35119 1.60143 0 2.44928 0 3.33333L0 5.83333C0 6.71739 0.35119 7.56524 0.976311 8.19036C1.60143 8.81548 2.44928 9.16667 3.33333 9.16667H5.83333C6.71739 9.16667 7.56524 8.81548 8.19036 8.19036C8.81548 7.56524 9.16667 6.71739 9.16667 5.83333V3.33333C9.16667 2.44928 8.81548 1.60143 8.19036 0.976311C7.56524 0.35119 6.71739 0 5.83333 0V0ZM7.5 5.83333C7.5 6.27536 7.32441 6.69928 7.01184 7.01184C6.69928 7.32441 6.27536 7.5 5.83333 7.5H3.33333C2.89131 7.5 2.46738 7.32441 2.15482 7.01184C1.84226 6.69928 1.66667 6.27536 1.66667 5.83333V3.33333C1.66667 2.89131 1.84226 2.46738 2.15482 2.15482C2.46738 1.84226 2.89131 1.66667 3.33333 1.66667H5.83333C6.27536 1.66667 6.69928 1.84226 7.01184 2.15482C7.32441 2.46738 7.5 2.89131 7.5 3.33333V5.83333Z" fill="#0819A2"/>
<path d="M5.83333 10.8334H3.33333C2.44928 10.8334 1.60143 11.1846 0.976311 11.8097C0.35119 12.4348 0 13.2827 0 14.1667L0 16.6667C0 17.5508 0.35119 18.3986 0.976311 19.0237C1.60143 19.6489 2.44928 20.0001 3.33333 20.0001H5.83333C6.71739 20.0001 7.56524 19.6489 8.19036 19.0237C8.81548 18.3986 9.16667 17.5508 9.16667 16.6667V14.1667C9.16667 13.2827 8.81548 12.4348 8.19036 11.8097C7.56524 11.1846 6.71739 10.8334 5.83333 10.8334V10.8334ZM7.5 16.6667C7.5 17.1087 7.32441 17.5327 7.01184 17.8452C6.69928 18.1578 6.27536 18.3334 5.83333 18.3334H3.33333C2.89131 18.3334 2.46738 18.1578 2.15482 17.8452C1.84226 17.5327 1.66667 17.1087 1.66667 16.6667V14.1667C1.66667 13.7247 1.84226 13.3008 2.15482 12.9882C2.46738 12.6756 2.89131 12.5 3.33333 12.5H5.83333C6.27536 12.5 6.69928 12.6756 7.01184 12.9882C7.32441 13.3008 7.5 13.7247 7.5 14.1667V16.6667Z" fill="#0819A2"/>
<path d="M16.6668 10.8334H14.1668C13.2828 10.8334 12.4349 11.1846 11.8098 11.8097C11.1847 12.4348 10.8335 13.2827 10.8335 14.1667V16.6667C10.8335 17.5508 11.1847 18.3986 11.8098 19.0237C12.4349 19.6489 13.2828 20.0001 14.1668 20.0001H16.6668C17.5509 20.0001 18.3987 19.6489 19.0238 19.0237C19.649 18.3986 20.0001 17.5508 20.0001 16.6667V14.1667C20.0001 13.2827 19.649 12.4348 19.0238 11.8097C18.3987 11.1846 17.5509 10.8334 16.6668 10.8334V10.8334ZM18.3335 16.6667C18.3335 17.1087 18.1579 17.5327 17.8453 17.8452C17.5328 18.1578 17.1088 18.3334 16.6668 18.3334H14.1668C13.7248 18.3334 13.3009 18.1578 12.9883 17.8452C12.6758 17.5327 12.5002 17.1087 12.5002 16.6667V14.1667C12.5002 13.7247 12.6758 13.3008 12.9883 12.9882C13.3009 12.6756 13.7248 12.5 14.1668 12.5H16.6668C17.1088 12.5 17.5328 12.6756 17.8453 12.9882C18.1579 13.3008 18.3335 13.7247 18.3335 14.1667V16.6667Z" fill="#0819A2"/>
<path d="M11.6668 5.83337H14.1668V8.33337C14.1668 8.55439 14.2546 8.76635 14.4109 8.92263C14.5672 9.07891 14.7791 9.16671 15.0002 9.16671C15.2212 9.16671 15.4331 9.07891 15.5894 8.92263C15.7457 8.76635 15.8335 8.55439 15.8335 8.33337V5.83337H18.3335C18.5545 5.83337 18.7665 5.74558 18.9228 5.5893C19.079 5.43302 19.1668 5.22105 19.1668 5.00004C19.1668 4.77903 19.079 4.56707 18.9228 4.41079C18.7665 4.2545 18.5545 4.16671 18.3335 4.16671H15.8335V1.66671C15.8335 1.44569 15.7457 1.23373 15.5894 1.07745C15.4331 0.921171 15.2212 0.833374 15.0002 0.833374C14.7791 0.833374 14.5672 0.921171 14.4109 1.07745C14.2546 1.23373 14.1668 1.44569 14.1668 1.66671V4.16671H11.6668C11.4458 4.16671 11.2339 4.2545 11.0776 4.41079C10.9213 4.56707 10.8335 4.77903 10.8335 5.00004C10.8335 5.22105 10.9213 5.43302 11.0776 5.5893C11.2339 5.74558 11.4458 5.83337 11.6668 5.83337V5.83337Z" fill="#0819A2"/>
</g>
<defs>
<clipPath id="clip0_15296_135">
<rect width="20" height="20" fill="white"/>
</clipPath>
</defs>
</svg>
